<?xml version="1.0" encoding="UTF-8"?><svg id="Layer_1" xmlns="http://www.w3.org/2000/svg" viewBox="0 0 500 500"><path d="M289.04,388.17c25.15,16.78,52.42,17.5,81.12,16.69-15.34,21.79-52.11,33.06-76.9,24.76-17.98-6.02-35.69-12.86-53.44-19.53-29.06-10.92-58.43-16.83-89.14-6.92-2.79,.9-6.12,.12-9.99-2.16,9.62-5.59,18.79-12.29,28.99-16.47,10.58-4.34,8.81-8.43,2.02-14.11-19.95-16.71-33.34-37.47-42.11-62.11-9.75-27.4-6-54.11,3.46-79.59,16.51-44.47,46.06-77.77,92.72-92.2,12.54-3.88,26.36-3.6,40.92-5.39-3.49-13.5-12.46-28.06,.95-40.81,8.61-8.18,18.18-15.34,27.31-22.96,1.03,.92,2.05,1.84,3.08,2.76-.73,4.01-1.43,8.02-2.19,12.02-5.58,29.19,8.25,52.56,22.76,75.66,15.27,24.31,31.12,48.26,46.1,72.74,19.95,32.61,13.21,64.18-6.03,94.2-17.12,26.7-40.18,47.48-69.63,63.44Zm11.59-201.98c-3.22,2.53-4.24,2.91-4.43,3.55-.6,2-1.17,4.08-1.27,6.16-1.43,27.35-11.81,51.64-30.38,70.77-19.57,20.16-41.71,37.92-63.57,55.7-8.58,6.98-9.41,10.81-.96,18.39,14.1,12.66,29.42,22.31,47.81,27.41,28.9,8.01,64.01,.62,80.67-31.1,16.79-31.96,19.81-64.22,1.9-96.86-9.81-17.88-19.7-35.73-29.78-54.01Zm-142.33,69.04c-.35,22.97,8.23,42.92,20.75,61.45,4.54,6.72,9.13,10.63,16.71,2.01,10.84-12.33,23.69-22.92,34.35-35.39,20.33-23.79,34.18-50.36,29.71-83.22-2.61-19.17-16.39-35.89-32.68-39.85-16.16-3.93-33.96,3.34-44.26,20.07-14.09,22.88-23.83,47.52-24.57,74.92Z" style="fill:#0f1521;"/></svg>